<svg width="104" height="104" viewBox="0 0 104 104" fill="none" xmlns="http://www.w3.org/2000/svg">
<path d="M82.3333 38.9998C82.3333 35.0164 81.5487 31.072 80.0243 27.3918C78.4999 23.7116 76.2656 20.3676 73.4489 17.5509C70.6322 14.7342 67.2882 12.4999 63.608 10.9755C59.9278 9.4511 55.9834 8.6665 52 8.6665C48.0165 8.6665 44.0721 9.4511 40.3919 10.9755C36.7117 12.4999 33.3678 14.7342 30.5511 17.5509C27.7343 20.3676 25.5 23.7116 23.9756 27.3918C22.4512 31.072 21.6666 35.0164 21.6666 38.9998C21.6666 45.0102 23.439 50.6002 26.455 55.3148H26.4203L52 95.3332L77.5796 55.3148H77.5493C80.6731 50.4467 82.3335 44.784 82.3333 38.9998ZM52 51.9998C48.5521 51.9998 45.2455 50.6302 42.8076 48.1922C40.3696 45.7543 39 42.4477 39 38.9998C39 35.552 40.3696 32.2454 42.8076 29.8074C45.2455 27.3695 48.5521 25.9998 52 25.9998C55.4478 25.9998 58.7544 27.3695 61.1924 29.8074C63.6303 32.2454 65 35.552 65 38.9998C65 42.4477 63.6303 45.7543 61.1924 48.1922C58.7544 50.6302 55.4478 51.9998 52 51.9998Z" fill="#FFB13D"/>
</svg>
